<?xml version="1.0" encoding="utf-8"?>
<!-- Generator: Adobe Illustrator 22.1.0, SVG Export Plug-In . SVG Version: 6.00 Build 0)  -->
<svg version="1.1" xmlns="http://www.w3.org/2000/svg" xmlns:xlink="http://www.w3.org/1999/xlink" x="0px" y="0px"
	 viewBox="0 0 260 40" style="enable-background:new 0 0 260 40;" xml:space="preserve">
<style type="text/css">
	.st0{fill:#FFC526;}
	.st1{fill:#40B4E5;}
	.st2{fill:#047732;}
	.st3{display:none;}
	.st4{display:inline;}
	.st5{display:inline;fill:#FFFFFF;}
</style>
<g id="color">
	<polygon class="st0" points="87.9,11.7 83.2,4.5 83.2,0 81.8,0 81.8,4.6 77.2,11.7 77.2,28.3 81.8,35.4 81.8,40 83.2,40 83.2,35.5 
		87.9,28.3 	"/>
	<polygon class="st1" points="100.9,11.7 96.3,4.5 96.3,0 94.9,0 94.9,4.5 90.3,11.7 90.3,28.3 94.9,35.5 94.9,40 96.3,40 
		96.3,35.5 100.9,28.3 	"/>
	<polygon class="st2" points="114,11.7 109.3,4.5 109.3,0 108,0 108,4.5 103.3,11.7 103.3,28.3 108,35.5 108,40 109.3,40 
		109.3,35.5 114,28.3 	"/>
	<path d="M3,9.4v12.8c0,0.5,0,1,0.1,1.4c0.1,1.6,0.6,3,1.9,4c0.4,0.3,1.4,0.8,2.8,0.8c1.2,0,2-0.4,2.4-0.6c1.9-1.2,2-3.4,2.1-5.5
		V9.4h3.1v13.3c0,0.3,0,0.7,0,1c0,0.6-0.1,2.6-1.2,4.3c-1.4,2.1-4.1,3.3-6.5,3.3c-3.1,0-6.1-1.8-7.2-4.9C0,25.3,0,24.2,0,23V9.4H3z"
		/>
	<path d="M35.6,14.1c-0.4-0.2-0.7-0.5-1.1-0.7c-0.7-0.4-2-1.3-4.2-1.3c-2.4,0-4.9,1.2-6.3,3.1s-1.5,4.2-1.5,5c0,0.6,0.1,2.1,0.7,3.6
		c1.2,2.8,4.2,4.5,7.1,4.5c2.1,0,3.4-0.8,5.2-2V30c-0.9,0.5-2.6,1.4-5.2,1.4c-1.3,0-4.4-0.2-7.2-2.7c-1.3-1.1-3.6-3.8-3.6-8.5
		c0-2.8,0.9-5.5,2.6-7.5c2-2.3,5.2-3.7,8.3-3.7c2,0,3.4,0.6,5.3,1.4L35.6,14.1z"/>
	<path d="M57.9,31h-3.3l-2.1-5.2h-9L41.1,31h-3.3L48.2,8.1L57.9,31z M44.7,23h6.6l-3.2-7.6L44.7,23z"/>
	<path d="M61.3,31V9.4c1.2,0,2.4,0,3.6,0c0.7,0,1.3,0,1.9,0.1c0.7,0,2.4,0.2,3.8,1.7c1,1,1.5,2.5,1.5,4c0,1.1-0.4,2.5-1.1,3.3
		c-0.3,0.3-0.6,0.6-1.2,1c0.6,0.2,1.2,0.4,1.8,0.7c0.8,0.6,2.1,1.9,2.1,4.6c0,1.1-0.2,3.7-2.7,5.2c-1.6,1-3.1,1-6.6,1H61.3z
		 M64.3,28.2c0.7,0,1.3,0,2,0c0.2,0,1.4,0,2.2-0.2c0.8-0.2,2.3-0.9,2.3-3.2c0-2-1.4-2.9-2.1-3.1s-1.5-0.2-1.7-0.2
		c-0.9,0-1.8,0-2.7,0L64.3,28.2L64.3,28.2z M64.3,18.8h1.2c1.2-0.1,2.3-0.2,3-1.2c0.2-0.3,0.7-1.1,0.7-2.2c0-0.4-0.1-1.2-0.6-1.9
		c-0.8-1.1-1.9-1.2-4.4-1.1L64.3,18.8z"/>
	<path d="M120.5,9.6V14c0,0.2,0,0.3,0,0.5c0.1,0.6,0.2,1,0.7,1.4c0.2,0.1,0.5,0.3,1,0.3c0.4,0,0.7-0.1,0.8-0.2
		c0.7-0.4,0.7-1.2,0.7-1.9V9.6h1.1v4.6c0,0.1,0,0.2,0,0.4s-0.1,0.9-0.4,1.5c-0.5,0.7-1.4,1.1-2.2,1.1c-1.1,0-2.1-0.6-2.5-1.7
		c-0.1-0.4-0.1-0.8-0.1-1.2V9.6H120.5L120.5,9.6z"/>
	<path d="M133.3,9.6h1.1v7.7c-0.8-0.9-1.6-1.7-2.5-2.6c-0.5-0.5-1-1-1.5-1.5s-1-1.1-1.5-1.6c0,0.4,0.1,0.7,0.1,1.1c0,0.3,0,0.6,0,1
		v3.4h-1.1V9c1,1,2,2.1,3,3.1c0.8,0.8,1.6,1.7,2.4,2.5c0-0.2-0.1-0.5-0.1-0.7s0-0.4,0-0.6L133.3,9.6L133.3,9.6z"/>
	<path d="M138.8,9.5v7.4h-1.1V9.5H138.8z"/>
	<path d="M147.5,9.6l-3.2,7.9l-3.2-7.9h1.2c0.4,1,0.8,1.9,1.2,2.9c0.3,0.8,0.6,1.7,0.9,2.5c0.2-0.5,0.3-1,0.5-1.5
		c0.2-0.7,0.5-1.3,0.8-1.9c0.3-0.6,0.5-1.3,0.8-1.9L147.5,9.6L147.5,9.6z"/>
	<path d="M153.8,9.5v1h-2.9v1.8h2.9v1h-2.9v2.6h2.9v1h-3.9V9.5H153.8z"/>
	<path d="M160.4,17l-2.2-3.2h-0.4V17h-1V9.5h2.1c0.5,0,1,0.1,1.4,0.4c0.5,0.4,0.7,1.1,0.7,1.7c0,0.3-0.1,1.3-0.9,1.8
		c-0.2,0.1-0.3,0.2-0.7,0.3c0.3,0.5,0.7,1,1,1.5c0.3,0.4,0.5,0.7,0.8,1.1c0.2,0.2,0.3,0.5,0.4,0.7H160.4L160.4,17z M157.8,10.6v2.3
		h0.8c0.5,0,0.9-0.1,1.1-0.5c0.1-0.1,0.2-0.4,0.2-0.8c0-0.1,0-0.6-0.3-0.8c-0.2-0.2-0.5-0.2-0.8-0.2H157.8L157.8,10.6z"/>
	<path d="M167.2,11.2c-0.1-0.1-0.1-0.2-0.2-0.3c-0.4-0.5-0.7-0.5-1-0.5c-0.2,0-0.3,0-0.4,0.1c-0.5,0.2-0.5,0.7-0.5,0.9
		c0,0.5,0.5,0.7,0.6,0.8l1.3,0.7c0.2,0.1,0.4,0.2,0.6,0.4c0.7,0.6,0.8,1.3,0.8,1.6c0,0.2,0,0.4-0.1,0.8c-0.4,1-1.2,1.6-2.2,1.6
		c-0.3,0-1-0.1-1.6-0.6c-0.5-0.4-0.7-0.9-0.9-1.6l1-0.2c0.1,0.4,0.2,0.6,0.3,0.7c0.3,0.4,0.7,0.7,1.2,0.7c0.2,0,0.4-0.1,0.5-0.1
		c0.4-0.2,0.7-0.7,0.7-1.2c0-0.6-0.4-0.9-0.8-1.2c-0.5-0.3-1-0.4-1.5-0.7c-0.8-0.5-0.9-1.2-0.9-1.6c0-0.2,0.1-0.8,0.4-1.2
		c0.2-0.3,0.7-0.7,1.6-0.7c0.3,0,0.9,0.1,1.5,0.5c0.3,0.2,0.4,0.4,0.6,0.7L167.2,11.2z"/>
	<path d="M172.1,9.5v7.4H171V9.5H172.1z"/>
	<path d="M175.5,16.9V9.5c1.5,0,1.8,0,2.7,0.1c0.6,0.1,0.8,0.2,1.2,0.4c1.2,0.6,1.7,1.9,1.7,3.2c0,0.4-0.1,1.6-0.9,2.6
		c-0.4,0.5-0.8,0.7-1,0.8c-0.4,0.2-0.9,0.3-1.9,0.4L175.5,16.9L175.5,16.9z M176.5,16c0.2,0,0.5,0,0.7,0c1,0,1.8-0.3,2.4-1.2
		c0.2-0.2,0.4-0.8,0.4-1.6c0-1.3-0.8-1.9-1.1-2.2c-0.7-0.5-1.6-0.4-2.4-0.4L176.5,16L176.5,16z"/>
	<path d="M189.6,17h-1.1l-0.7-1.8h-3.1l-0.8,1.8h-1.1l3.6-7.9L189.6,17z M185.1,14.2h2.3l-1.1-2.6L185.1,14.2z"/>
	<path d="M192,16.9V9.5c1.5,0,1.8,0,2.7,0.1c0.6,0.1,0.8,0.2,1.2,0.4c1.2,0.6,1.7,1.9,1.7,3.2c0,0.4-0.1,1.6-0.9,2.6
		c-0.4,0.5-0.8,0.7-1,0.8c-0.4,0.2-0.9,0.3-1.9,0.4L192,16.9L192,16.9z M193,16c0.2,0,0.5,0,0.7,0c1,0,1.8-0.3,2.4-1.2
		c0.2-0.2,0.4-0.8,0.4-1.6c0-1.3-0.8-1.9-1.1-2.2c-0.7-0.5-1.6-0.4-2.4-0.4L193,16L193,16z"/>
	<path d="M209.7,11.2c-0.1-0.1-0.2-0.2-0.4-0.3s-0.7-0.5-1.4-0.5c-0.8,0-1.7,0.4-2.2,1.1c-0.5,0.7-0.5,1.4-0.5,1.7
		c0,0.2,0,0.7,0.3,1.2c0.4,1,1.4,1.5,2.4,1.5c0.7,0,1.2-0.3,1.8-0.7v1.3c-0.3,0.2-0.9,0.5-1.8,0.5c-0.4,0-1.5-0.1-2.5-0.9
		c-0.4-0.4-1.2-1.3-1.2-2.9c0-1,0.3-1.9,0.9-2.6c0.7-0.8,1.8-1.3,2.8-1.3c0.7,0,1.2,0.2,1.8,0.5L209.7,11.2z"/>
	<path d="M218.5,17h-1.1l-0.7-1.8h-3.1l-0.8,1.8h-1.1l3.6-7.9L218.5,17z M213.9,14.2h2.3l-1.1-2.6L213.9,14.2z"/>
	<path d="M223.8,9.5v1h-1.7v6.4h-1v-6.4h-1.7v-1H223.8z"/>
	<path d="M226.9,10.6c0.7-0.8,1.7-1.2,2.7-1.2c1.2,0,2.1,0.6,2.4,0.9c0.9,0.7,1.4,1.8,1.4,3c0,0.3,0,0.8-0.3,1.4
		c-0.6,1.5-2,2.4-3.5,2.4c-1.2,0-2.1-0.6-2.4-0.9c-0.9-0.7-1.4-1.9-1.3-3C225.9,12.2,226.2,11.3,226.9,10.6z M227.5,15
		c0.5,0.7,1.3,1.1,2.1,1.1c0.3,0,1-0.1,1.7-0.6c0.6-0.5,1-1.3,1-2.2c0-0.5-0.2-0.9-0.2-1.1c-0.4-1-1.4-1.7-2.5-1.7
		c-0.6,0-1.2,0.2-1.7,0.6c-0.3,0.2-1,0.9-1,2.1C226.9,13.8,227.1,14.5,227.5,15z M231.1,7.7L229.6,9L229,8.7l1.2-1.4L231.1,7.7z"/>
	<path d="M237.1,9.5v6.4h2.2v1h-3.2V9.5H237.1z"/>
	<path d="M243,9.5v7.4h-1.1V9.5H243z"/>
	<path d="M251.2,11.2c-0.1-0.1-0.2-0.2-0.4-0.3s-0.7-0.5-1.4-0.5c-0.8,0-1.7,0.4-2.2,1.1c-0.5,0.7-0.5,1.4-0.5,1.7
		c0,0.2,0,0.7,0.3,1.2c0.4,1,1.4,1.5,2.4,1.5c0.7,0,1.2-0.3,1.8-0.7v1.3c-0.3,0.2-0.9,0.5-1.8,0.5c-0.4,0-1.5-0.1-2.5-0.9
		c-0.4-0.4-1.2-1.3-1.2-2.9c0-1,0.3-1.9,0.9-2.6c0.7-0.8,1.8-1.3,2.8-1.3c0.7,0,1.2,0.2,1.8,0.5L251.2,11.2z"/>
	<path d="M260,17h-1.1l-0.7-1.8h-3.1l-0.8,1.8h-1.1l3.6-7.9L260,17z M255.5,14.2h2.3l-1.1-2.6L255.5,14.2z"/>
	<path d="M125.9,30.6h-1.1l-0.7-1.8H121l-0.8,1.8h-1.1l3.6-7.9L125.9,30.6z M121.4,27.9h2.3l-1.1-2.6L121.4,27.9z"/>
	<path d="M133.6,23.2h1.1v7.7c-0.8-0.9-1.6-1.7-2.5-2.6c-0.5-0.5-1-1-1.5-1.5s-1-1.1-1.5-1.6c0,0.4,0.1,0.7,0.1,1.1c0,0.3,0,0.6,0,1
		v3.4h-1.1v-7.9c1,1,2,2.1,3,3.1c0.8,0.8,1.6,1.7,2.4,2.5c0-0.2-0.1-0.5-0.1-0.7s0-0.4,0-0.6v-3.9H133.6z"/>
	<path d="M138,30.6v-7.4c1.5,0,1.8,0,2.7,0.1c0.6,0.1,0.8,0.2,1.2,0.4c1.2,0.6,1.7,1.9,1.7,3.2c0,0.4-0.1,1.6-0.9,2.6
		c-0.4,0.5-0.8,0.7-1,0.8c-0.4,0.2-0.9,0.3-1.9,0.4L138,30.6L138,30.6z M139,29.6c0.2,0,0.5,0,0.7,0c1,0,1.8-0.3,2.4-1.2
		c0.2-0.2,0.4-0.8,0.4-1.6c0-1.3-0.8-1.9-1.1-2.2c-0.7-0.5-1.6-0.4-2.4-0.4L139,29.6L139,29.6z"/>
	<path d="M149.9,30.6l-2.2-3.2h-0.4v3.2h-1v-7.5h2.1c0.5,0,1,0.1,1.4,0.4c0.5,0.4,0.7,1.1,0.7,1.7c0,0.3-0.1,1.3-0.9,1.8
		c-0.2,0.1-0.3,0.2-0.7,0.3c0.3,0.5,0.7,1,1,1.5c0.3,0.4,0.5,0.7,0.8,1.1c0.2,0.2,0.3,0.5,0.4,0.7H149.9L149.9,30.6z M147.3,24.2
		v2.3h0.8c0.5,0,0.9-0.1,1.1-0.5c0.1-0.1,0.2-0.4,0.2-0.8c0-0.1,0-0.6-0.3-0.8c-0.2-0.2-0.5-0.2-0.8-0.2H147.3L147.3,24.2z"/>
	<path d="M157.6,23.2v1h-2.9V26h2.9v1h-2.9v2.6h2.9v1h-3.9v-7.4H157.6z M156.9,21.4l-1.5,1.3l-0.6-0.3L156,21L156.9,21.4z"/>
	<path d="M163.4,24.8c-0.1-0.1-0.1-0.2-0.2-0.3c-0.3-0.4-0.7-0.5-1-0.5c-0.2,0-0.3,0-0.4,0.1c-0.5,0.2-0.5,0.7-0.5,0.9
		c0,0.5,0.5,0.7,0.6,0.8l1.3,0.7c0.2,0.1,0.4,0.2,0.6,0.4c0.7,0.6,0.8,1.3,0.8,1.6c0,0.2,0,0.4-0.1,0.8c-0.4,1-1.2,1.6-2.2,1.6
		c-0.3,0-1-0.1-1.6-0.6c-0.5-0.4-0.7-0.9-0.9-1.6l1-0.2c0.1,0.4,0.2,0.6,0.3,0.7c0.3,0.4,0.7,0.7,1.2,0.7c0.2,0,0.4-0.1,0.5-0.1
		c0.4-0.2,0.7-0.7,0.7-1.2c0-0.6-0.4-0.9-0.8-1.2c-0.5-0.3-1-0.4-1.5-0.7c-0.8-0.5-0.9-1.2-0.9-1.6c0-0.2,0.1-0.8,0.5-1.2
		c0.2-0.3,0.7-0.7,1.6-0.7c0.3,0,0.9,0.1,1.5,0.5c0.3,0.2,0.4,0.4,0.6,0.7L163.4,24.8z"/>
	<path d="M171.3,30.6v-7.4c0.4,0,0.8,0,1.2,0c0.2,0,0.5,0,0.7,0s0.8,0.1,1.3,0.6c0.3,0.4,0.5,0.9,0.5,1.4c0,0.4-0.1,0.8-0.4,1.1
		c-0.1,0.1-0.2,0.2-0.4,0.4c0.2,0.1,0.4,0.1,0.6,0.3c0.3,0.2,0.7,0.7,0.7,1.6c0,0.4-0.1,1.3-0.9,1.8c-0.6,0.3-1.1,0.3-2.3,0.3
		L171.3,30.6L171.3,30.6z M172.3,29.7c0.2,0,0.5,0,0.7,0c0.1,0,0.5,0,0.8-0.1s0.8-0.3,0.8-1.1c0-0.7-0.5-1-0.7-1.1s-0.5-0.1-0.6-0.1
		c-0.3,0-0.6,0-0.9,0L172.3,29.7L172.3,29.7z M172.3,26.5h0.4c0.4,0,0.8-0.1,1-0.4c0.1-0.1,0.2-0.4,0.2-0.7c0-0.1,0-0.4-0.2-0.7
		c-0.3-0.4-0.7-0.4-1.5-0.4L172.3,26.5z"/>
	<path d="M182.4,23.2v1h-2.9V26h2.9v1h-2.9v2.6h2.9v1h-3.9v-7.4H182.4z"/>
	<path d="M186.5,23.2v6.4h2.2v1h-3.2v-7.4H186.5z"/>
	<path d="M192.3,23.2v6.4h2.2v1h-3.2v-7.4H192.3z"/>
	<path d="M197.1,24.3c0.7-0.8,1.7-1.2,2.7-1.2c1.2,0,2.1,0.6,2.4,0.9c0.9,0.7,1.4,1.8,1.4,3c0,0.3,0,0.8-0.3,1.4
		c-0.6,1.5-2,2.4-3.5,2.4c-1.2,0-2.1-0.6-2.4-0.9c-0.9-0.7-1.4-1.9-1.3-3C196.1,25.9,196.5,24.9,197.1,24.3z M197.7,28.6
		c0.5,0.7,1.3,1.1,2.1,1.1c0.3,0,1-0.1,1.7-0.6c0.6-0.5,1-1.3,1-2.2c0-0.5-0.2-0.9-0.2-1.1c-0.4-1-1.4-1.7-2.5-1.7
		c-0.6,0-1.2,0.2-1.7,0.6c-0.3,0.2-1,0.9-1,2C197.1,27.4,197.3,28.1,197.7,28.6z"/>
</g>
<g id="negro" class="st3">
	<polygon class="st4" points="88.5,11.7 83.8,4.5 83.8,0 82.4,0 82.4,4.6 77.8,11.7 77.8,28.3 82.4,35.4 82.4,40 83.8,40 83.8,35.5 
		88.5,28.3 	"/>
	<polygon class="st4" points="101.5,11.7 96.9,4.5 96.9,0 95.5,0 95.5,4.5 90.9,11.7 90.9,28.3 95.5,35.5 95.5,40 96.9,40 
		96.9,35.5 101.5,28.3 	"/>
	<polygon class="st4" points="114.6,11.7 109.9,4.5 109.9,0 108.6,0 108.6,4.5 103.9,11.7 103.9,28.3 108.6,35.5 108.6,40 109.9,40 
		109.9,35.5 114.6,28.3 	"/>
	<path class="st4" d="M3.6,9.4v12.8c0,0.5,0,1,0.1,1.4c0.1,1.6,0.6,3,1.9,4C6,27.9,7,28.4,8.4,28.4c1.2,0,2-0.4,2.4-0.6
		c1.9-1.2,2-3.4,2.1-5.5V9.4H16v13.3c0,0.3,0,0.7,0,1c0,0.6-0.1,2.6-1.2,4.3c-1.4,2.1-4.1,3.3-6.5,3.3c-3.1,0-6.1-1.8-7.2-4.9
		c-0.5-1.1-0.5-2.2-0.5-3.4V9.4H3.6z"/>
	<path class="st4" d="M36.2,14.1c-0.4-0.2-0.7-0.5-1.1-0.7c-0.7-0.4-2-1.3-4.2-1.3c-2.4,0-4.9,1.2-6.3,3.1s-1.5,4.2-1.5,5
		c0,0.6,0.1,2.1,0.7,3.6c1.2,2.8,4.2,4.5,7.1,4.5c2.1,0,3.4-0.8,5.2-2V30c-0.9,0.5-2.6,1.4-5.2,1.4c-1.3,0-4.4-0.2-7.2-2.7
		c-1.3-1.1-3.6-3.8-3.6-8.5c0-2.8,0.9-5.5,2.6-7.5c2-2.3,5.2-3.7,8.3-3.7c2,0,3.4,0.6,5.3,1.4L36.2,14.1z"/>
	<path class="st4" d="M58.5,31h-3.3l-2.1-5.2h-9L41.7,31h-3.3L48.8,8.1L58.5,31z M45.3,23h6.6l-3.2-7.6L45.3,23z"/>
	<path class="st4" d="M61.9,31V9.4c1.2,0,2.4,0,3.6,0c0.7,0,1.3,0,1.9,0.1c0.7,0,2.4,0.2,3.8,1.7c1,1,1.5,2.5,1.5,4
		c0,1.1-0.4,2.5-1.1,3.3c-0.3,0.3-0.6,0.6-1.2,1c0.6,0.2,1.2,0.4,1.8,0.7c0.8,0.6,2.1,1.9,2.1,4.6c0,1.1-0.2,3.7-2.7,5.2
		c-1.6,1-3.1,1-6.6,1H61.9z M64.9,28.2c0.7,0,1.3,0,2,0c0.2,0,1.4,0,2.2-0.2c0.8-0.2,2.3-0.9,2.3-3.2c0-2-1.4-2.9-2.1-3.1
		s-1.5-0.2-1.7-0.2c-0.9,0-1.8,0-2.7,0L64.9,28.2L64.9,28.2z M64.9,18.8h1.2c1.2-0.1,2.3-0.2,3-1.2c0.2-0.3,0.7-1.1,0.7-2.2
		c0-0.4-0.1-1.2-0.6-1.9c-0.8-1.1-1.9-1.2-4.4-1.1L64.9,18.8z"/>
	<path class="st4" d="M121.1,9.6V14c0,0.2,0,0.3,0,0.5c0.1,0.6,0.2,1,0.7,1.4c0.2,0.1,0.5,0.3,1,0.3c0.4,0,0.7-0.1,0.8-0.2
		c0.7-0.4,0.7-1.2,0.7-1.9V9.6h1.1v4.6c0,0.1,0,0.2,0,0.4s-0.1,0.9-0.4,1.5c-0.5,0.7-1.4,1.1-2.2,1.1c-1.1,0-2.1-0.6-2.5-1.7
		c-0.1-0.4-0.1-0.8-0.1-1.2V9.6H121.1L121.1,9.6z"/>
	<path class="st4" d="M133.9,9.6h1.1v7.7c-0.8-0.9-1.6-1.7-2.5-2.6c-0.5-0.5-1-1-1.5-1.5s-1-1.1-1.5-1.6c0,0.4,0.1,0.7,0.1,1.1
		c0,0.3,0,0.6,0,1v3.4h-1.1V9c1,1,2,2.1,3,3.1c0.8,0.8,1.6,1.7,2.4,2.5c0-0.2-0.1-0.5-0.1-0.7s0-0.4,0-0.6L133.9,9.6L133.9,9.6z"/>
	<path class="st4" d="M139.4,9.5v7.4h-1.1V9.5H139.4z"/>
	<path class="st4" d="M148.1,9.6l-3.2,7.9l-3.2-7.9h1.2c0.4,1,0.8,1.9,1.2,2.9c0.3,0.8,0.6,1.7,0.9,2.5c0.2-0.5,0.3-1,0.5-1.5
		c0.2-0.7,0.5-1.3,0.8-1.9c0.3-0.6,0.5-1.3,0.8-1.9L148.1,9.6L148.1,9.6z"/>
	<path class="st4" d="M154.4,9.5v1h-2.9v1.8h2.9v1h-2.9v2.6h2.9v1h-3.9V9.5H154.4z"/>
	<path class="st4" d="M160.9,17l-2.2-3.2h-0.4V17h-1V9.5h2.1c0.5,0,1,0.1,1.4,0.4c0.5,0.4,0.7,1.1,0.7,1.7c0,0.3-0.1,1.3-0.9,1.8
		c-0.2,0.1-0.3,0.2-0.7,0.3c0.3,0.5,0.7,1,1,1.5c0.3,0.4,0.5,0.7,0.8,1.1c0.2,0.2,0.3,0.5,0.4,0.7H160.9L160.9,17z M158.4,10.6v2.3
		h0.8c0.5,0,0.9-0.1,1.1-0.5c0.1-0.1,0.2-0.4,0.2-0.8c0-0.1,0-0.6-0.3-0.8c-0.2-0.2-0.5-0.2-0.8-0.2H158.4L158.4,10.6z"/>
	<path class="st4" d="M167.8,11.2c-0.1-0.1-0.1-0.2-0.2-0.3c-0.4-0.5-0.7-0.5-1-0.5c-0.2,0-0.3,0-0.4,0.1c-0.5,0.2-0.5,0.7-0.5,0.9
		c0,0.5,0.5,0.7,0.6,0.8l1.3,0.7c0.2,0.1,0.4,0.2,0.6,0.4c0.7,0.6,0.8,1.3,0.8,1.6c0,0.2,0,0.4-0.1,0.8c-0.4,1-1.2,1.6-2.2,1.6
		c-0.3,0-1-0.1-1.6-0.6c-0.5-0.4-0.7-0.9-0.9-1.6l1-0.2c0.1,0.4,0.2,0.6,0.3,0.7c0.3,0.4,0.7,0.7,1.2,0.7c0.2,0,0.4-0.1,0.5-0.1
		c0.4-0.2,0.7-0.7,0.7-1.2c0-0.6-0.4-0.9-0.8-1.2c-0.5-0.3-1-0.4-1.5-0.7c-0.8-0.5-0.9-1.2-0.9-1.6c0-0.2,0.1-0.8,0.4-1.2
		c0.2-0.3,0.7-0.7,1.6-0.7c0.3,0,0.9,0.1,1.5,0.5c0.3,0.2,0.4,0.4,0.6,0.7L167.8,11.2z"/>
	<path class="st4" d="M172.7,9.5v7.4h-1.1V9.5H172.7z"/>
	<path class="st4" d="M176.1,16.9V9.5c1.5,0,1.8,0,2.7,0.1c0.6,0.1,0.8,0.2,1.2,0.4c1.2,0.6,1.7,1.9,1.7,3.2c0,0.4-0.1,1.6-0.9,2.6
		c-0.4,0.5-0.8,0.7-1,0.8c-0.4,0.2-0.9,0.3-1.9,0.4L176.1,16.9L176.1,16.9z M177.1,16c0.2,0,0.5,0,0.7,0c1,0,1.8-0.3,2.4-1.2
		c0.2-0.2,0.4-0.8,0.4-1.6c0-1.3-0.8-1.9-1.1-2.2c-0.7-0.5-1.6-0.4-2.4-0.4L177.1,16L177.1,16z"/>
	<path class="st4" d="M190.2,17h-1.1l-0.7-1.8h-3.1l-0.8,1.8h-1.1l3.6-7.9L190.2,17z M185.7,14.2h2.3l-1.1-2.6L185.7,14.2z"/>
	<path class="st4" d="M192.6,16.9V9.5c1.5,0,1.8,0,2.7,0.1c0.6,0.1,0.8,0.2,1.2,0.4c1.2,0.6,1.7,1.9,1.7,3.2c0,0.4-0.1,1.6-0.9,2.6
		c-0.4,0.5-0.8,0.7-1,0.8c-0.4,0.2-0.9,0.3-1.9,0.4L192.6,16.9L192.6,16.9z M193.6,16c0.2,0,0.5,0,0.7,0c1,0,1.8-0.3,2.4-1.2
		c0.2-0.2,0.4-0.8,0.4-1.6c0-1.3-0.8-1.9-1.1-2.2c-0.7-0.5-1.6-0.4-2.4-0.4L193.6,16L193.6,16z"/>
	<path class="st4" d="M210.3,11.2c-0.1-0.1-0.2-0.2-0.4-0.3s-0.7-0.5-1.4-0.5c-0.8,0-1.7,0.4-2.2,1.1c-0.5,0.7-0.5,1.4-0.5,1.7
		c0,0.2,0,0.7,0.3,1.2c0.4,1,1.4,1.5,2.4,1.5c0.7,0,1.2-0.3,1.8-0.7v1.3c-0.3,0.2-0.9,0.5-1.8,0.5c-0.4,0-1.5-0.1-2.5-0.9
		c-0.4-0.4-1.2-1.3-1.2-2.9c0-1,0.3-1.9,0.9-2.6c0.7-0.8,1.8-1.3,2.8-1.3c0.7,0,1.2,0.2,1.8,0.5L210.3,11.2z"/>
	<path class="st4" d="M219.1,17h-1.1l-0.7-1.8h-3.1l-0.8,1.8h-1.1l3.6-7.9L219.1,17z M214.4,14.2h2.3l-1.1-2.6L214.4,14.2z"/>
	<path class="st4" d="M224.4,9.5v1h-1.7v6.4h-1v-6.4H220v-1H224.4z"/>
	<path class="st4" d="M227.4,10.6c0.7-0.8,1.7-1.2,2.7-1.2c1.2,0,2.1,0.6,2.4,0.9c0.9,0.7,1.4,1.8,1.4,3c0,0.3,0,0.8-0.3,1.4
		c-0.6,1.5-2,2.4-3.5,2.4c-1.2,0-2.1-0.6-2.4-0.9c-0.9-0.7-1.4-1.9-1.3-3C226.4,12.2,226.8,11.3,227.4,10.6z M228.1,15
		c0.5,0.7,1.3,1.1,2.1,1.1c0.3,0,1-0.1,1.7-0.6c0.6-0.5,1-1.3,1-2.2c0-0.5-0.2-0.9-0.2-1.1c-0.4-1-1.4-1.7-2.5-1.7
		c-0.6,0-1.2,0.2-1.7,0.6c-0.3,0.2-1,0.9-1,2.1C227.4,13.8,227.7,14.5,228.1,15z M231.7,7.7L230.2,9l-0.6-0.3l1.2-1.4L231.7,7.7z"/>
	<path class="st4" d="M237.7,9.5v6.4h2.2v1h-3.2V9.5H237.7z"/>
	<path class="st4" d="M243.6,9.5v7.4h-1.1V9.5H243.6z"/>
	<path class="st4" d="M251.8,11.2c-0.1-0.1-0.2-0.2-0.4-0.3s-0.7-0.5-1.4-0.5c-0.8,0-1.7,0.4-2.2,1.1c-0.5,0.7-0.5,1.4-0.5,1.7
		c0,0.2,0,0.7,0.3,1.2c0.4,1,1.4,1.5,2.4,1.5c0.7,0,1.2-0.3,1.8-0.7v1.3c-0.3,0.2-0.9,0.5-1.8,0.5c-0.4,0-1.5-0.1-2.5-0.9
		c-0.4-0.4-1.2-1.3-1.2-2.9c0-1,0.3-1.9,0.9-2.6c0.7-0.8,1.8-1.3,2.8-1.3c0.7,0,1.2,0.2,1.8,0.5L251.8,11.2z"/>
	<path class="st4" d="M260.5,17h-1.1l-0.7-1.8h-3.1l-0.8,1.8h-1.1l3.6-7.9L260.5,17z M256,14.2h2.3l-1.1-2.6L256,14.2z"/>
	<path class="st4" d="M126.5,30.6h-1.1l-0.7-1.8h-3.1l-0.8,1.8h-1.1l3.6-7.9L126.5,30.6z M122,27.9h2.3l-1.1-2.6L122,27.9z"/>
	<path class="st4" d="M134.2,23.2h1.1v7.7c-0.8-0.9-1.6-1.7-2.5-2.6c-0.5-0.5-1-1-1.5-1.5s-1-1.1-1.5-1.6c0,0.4,0.1,0.7,0.1,1.1
		c0,0.3,0,0.6,0,1v3.4h-1.1v-7.9c1,1,2,2.1,3,3.1c0.8,0.8,1.6,1.7,2.4,2.5c0-0.2-0.1-0.5-0.1-0.7s0-0.4,0-0.6v-3.9H134.2z"/>
	<path class="st4" d="M138.6,30.6v-7.4c1.5,0,1.8,0,2.7,0.1c0.6,0.1,0.8,0.2,1.2,0.4c1.2,0.6,1.7,1.9,1.7,3.2c0,0.4-0.1,1.6-0.9,2.6
		c-0.4,0.5-0.8,0.7-1,0.8c-0.4,0.2-0.9,0.3-1.9,0.4L138.6,30.6L138.6,30.6z M139.6,29.6c0.2,0,0.5,0,0.7,0c1,0,1.8-0.3,2.4-1.2
		c0.2-0.2,0.4-0.8,0.4-1.6c0-1.3-0.8-1.9-1.1-2.2c-0.7-0.5-1.6-0.4-2.4-0.4L139.6,29.6L139.6,29.6z"/>
	<path class="st4" d="M150.4,30.6l-2.2-3.2h-0.4v3.2h-1v-7.5h2.1c0.5,0,1,0.1,1.4,0.4c0.5,0.4,0.7,1.1,0.7,1.7
		c0,0.3-0.1,1.3-0.9,1.8c-0.2,0.1-0.3,0.2-0.7,0.3c0.3,0.5,0.7,1,1,1.5c0.3,0.4,0.5,0.7,0.8,1.1c0.2,0.2,0.3,0.5,0.4,0.7H150.4
		L150.4,30.6z M147.9,24.2v2.3h0.8c0.5,0,0.9-0.1,1.1-0.5c0.1-0.1,0.2-0.4,0.2-0.8c0-0.1,0-0.6-0.3-0.8c-0.2-0.2-0.5-0.2-0.8-0.2
		H147.9L147.9,24.2z"/>
	<path class="st4" d="M158.2,23.2v1h-2.9V26h2.9v1h-2.9v2.6h2.9v1h-3.9v-7.4H158.2z M157.4,21.4l-1.5,1.3l-0.6-0.3l1.2-1.4
		L157.4,21.4z"/>
	<path class="st4" d="M163.9,24.8c-0.1-0.1-0.1-0.2-0.2-0.3c-0.3-0.4-0.7-0.5-1-0.5c-0.2,0-0.3,0-0.4,0.1c-0.5,0.2-0.5,0.7-0.5,0.9
		c0,0.5,0.5,0.7,0.6,0.8l1.3,0.7c0.2,0.1,0.4,0.2,0.6,0.4c0.7,0.6,0.8,1.3,0.8,1.6c0,0.2,0,0.4-0.1,0.8c-0.4,1-1.2,1.6-2.2,1.6
		c-0.3,0-1-0.1-1.6-0.6c-0.5-0.4-0.7-0.9-0.9-1.6l1-0.2c0.1,0.4,0.2,0.6,0.3,0.7c0.3,0.4,0.7,0.7,1.2,0.7c0.2,0,0.4-0.1,0.5-0.1
		c0.4-0.2,0.7-0.7,0.7-1.2c0-0.6-0.4-0.9-0.8-1.2c-0.5-0.3-1-0.4-1.5-0.7c-0.8-0.5-0.9-1.2-0.9-1.6c0-0.2,0.1-0.8,0.5-1.2
		c0.2-0.3,0.7-0.7,1.6-0.7c0.3,0,0.9,0.1,1.5,0.5c0.3,0.2,0.4,0.4,0.6,0.7L163.9,24.8z"/>
	<path class="st4" d="M171.9,30.6v-7.4c0.4,0,0.8,0,1.2,0c0.2,0,0.5,0,0.7,0s0.8,0.1,1.3,0.6c0.3,0.4,0.5,0.9,0.5,1.4
		c0,0.4-0.1,0.8-0.4,1.1c-0.1,0.1-0.2,0.2-0.4,0.4c0.2,0.1,0.4,0.1,0.6,0.3c0.3,0.2,0.7,0.7,0.7,1.6c0,0.4-0.1,1.3-0.9,1.8
		c-0.6,0.3-1.1,0.3-2.3,0.3L171.9,30.6L171.9,30.6z M172.9,29.7c0.2,0,0.5,0,0.7,0c0.1,0,0.5,0,0.8-0.1s0.8-0.3,0.8-1.1
		c0-0.7-0.5-1-0.7-1.1s-0.5-0.1-0.6-0.1c-0.3,0-0.6,0-0.9,0L172.9,29.7L172.9,29.7z M172.9,26.5h0.4c0.4,0,0.8-0.1,1-0.4
		c0.1-0.1,0.2-0.4,0.2-0.7c0-0.1,0-0.4-0.2-0.7c-0.3-0.4-0.7-0.4-1.5-0.4L172.9,26.5z"/>
	<path class="st4" d="M182.9,23.2v1h-2.9V26h2.9v1h-2.9v2.6h2.9v1h-3.9v-7.4H182.9z"/>
	<path class="st4" d="M187.1,23.2v6.4h2.2v1h-3.2v-7.4H187.1z"/>
	<path class="st4" d="M192.9,23.2v6.4h2.2v1h-3.2v-7.4H192.9z"/>
	<path class="st4" d="M197.7,24.3c0.7-0.8,1.7-1.2,2.7-1.2c1.2,0,2.1,0.6,2.4,0.9c0.9,0.7,1.4,1.8,1.4,3c0,0.3,0,0.8-0.3,1.4
		c-0.6,1.5-2,2.4-3.5,2.4c-1.2,0-2.1-0.6-2.4-0.9c-0.9-0.7-1.4-1.9-1.3-3C196.7,25.9,197.1,24.9,197.7,24.3z M198.3,28.6
		c0.5,0.7,1.3,1.1,2.1,1.1c0.3,0,1-0.1,1.7-0.6c0.6-0.5,1-1.3,1-2.2c0-0.5-0.2-0.9-0.2-1.1c-0.4-1-1.4-1.7-2.5-1.7
		c-0.6,0-1.2,0.2-1.7,0.6c-0.3,0.2-1,0.9-1,2C197.7,27.4,197.9,28.1,198.3,28.6z"/>
</g>
<g id="blanco" class="st3">
	<polygon class="st5" points="88.6,11.7 83.9,4.5 83.9,0 82.5,0 82.5,4.6 77.9,11.7 77.9,28.3 82.5,35.4 82.5,40 83.9,40 83.9,35.5 
		88.6,28.3 	"/>
	<polygon class="st5" points="101.6,11.7 97,4.5 97,0 95.6,0 95.6,4.5 91,11.7 91,28.3 95.6,35.5 95.6,40 97,40 97,35.5 101.6,28.3 
			"/>
	<polygon class="st5" points="114.7,11.7 110,4.5 110,0 108.7,0 108.7,4.5 104,11.7 104,28.3 108.7,35.5 108.7,40 110,40 110,35.5 
		114.7,28.3 	"/>
	<path class="st5" d="M3.7,9.4v12.8c0,0.5,0,1,0.1,1.4c0.1,1.6,0.6,3,1.9,4c0.4,0.3,1.4,0.8,2.8,0.8c1.2,0,2-0.4,2.4-0.6
		c1.9-1.2,2-3.4,2.1-5.5V9.4h3.1v13.3c0,0.3,0,0.7,0,1c0,0.6-0.1,2.6-1.2,4.3c-1.4,2.1-4.1,3.3-6.5,3.3c-3.1,0-6.1-1.8-7.2-4.9
		c-0.5-1.1-0.5-2.2-0.5-3.4V9.4H3.7z"/>
	<path class="st5" d="M36.3,14.1c-0.4-0.2-0.7-0.5-1.1-0.7c-0.7-0.4-2-1.3-4.2-1.3c-2.4,0-4.9,1.2-6.3,3.1s-1.5,4.2-1.5,5
		c0,0.6,0.1,2.1,0.7,3.6c1.2,2.8,4.2,4.5,7.1,4.5c2.1,0,3.4-0.8,5.2-2V30c-0.9,0.5-2.6,1.4-5.2,1.4c-1.3,0-4.4-0.2-7.2-2.7
		c-1.3-1.1-3.6-3.8-3.6-8.5c0-2.8,0.9-5.5,2.6-7.5c2-2.3,5.2-3.7,8.3-3.7c2,0,3.4,0.6,5.3,1.4L36.3,14.1z"/>
	<path class="st5" d="M58.6,31h-3.3l-2.1-5.2h-9L41.8,31h-3.3L48.9,8.1L58.6,31z M45.4,23H52l-3.2-7.6L45.4,23z"/>
	<path class="st5" d="M62,31V9.4c1.2,0,2.4,0,3.6,0c0.7,0,1.3,0,1.9,0.1c0.7,0,2.4,0.2,3.8,1.7c1,1,1.5,2.5,1.5,4
		c0,1.1-0.4,2.5-1.1,3.3c-0.3,0.3-0.6,0.6-1.2,1c0.6,0.2,1.2,0.4,1.8,0.7c0.8,0.6,2.1,1.9,2.1,4.6c0,1.1-0.2,3.7-2.7,5.2
		c-1.6,1-3.1,1-6.6,1H62z M65,28.2c0.7,0,1.3,0,2,0c0.2,0,1.4,0,2.2-0.2c0.8-0.2,2.3-0.9,2.3-3.2c0-2-1.4-2.9-2.1-3.1
		s-1.5-0.2-1.7-0.2c-0.9,0-1.8,0-2.7,0L65,28.2L65,28.2z M65,18.8h1.2c1.2-0.1,2.3-0.2,3-1.2c0.2-0.3,0.7-1.1,0.7-2.2
		c0-0.4-0.1-1.2-0.6-1.9c-0.8-1.1-1.9-1.2-4.4-1.1L65,18.8z"/>
	<path class="st5" d="M121.2,9.6V14c0,0.2,0,0.3,0,0.5c0.1,0.6,0.2,1,0.7,1.4c0.2,0.1,0.5,0.3,1,0.3c0.4,0,0.7-0.1,0.8-0.2
		c0.7-0.4,0.7-1.2,0.7-1.9V9.6h1.1v4.6c0,0.1,0,0.2,0,0.4s-0.1,0.9-0.4,1.5c-0.5,0.7-1.4,1.1-2.2,1.1c-1.1,0-2.1-0.6-2.5-1.7
		c-0.1-0.4-0.1-0.8-0.1-1.2V9.6H121.2L121.2,9.6z"/>
	<path class="st5" d="M134,9.6h1.1v7.7c-0.8-0.9-1.6-1.7-2.5-2.6c-0.5-0.5-1-1-1.5-1.5s-1-1.1-1.5-1.6c0,0.4,0.1,0.7,0.1,1.1
		c0,0.3,0,0.6,0,1v3.4h-1.1V9c1,1,2,2.1,3,3.1c0.8,0.8,1.6,1.7,2.4,2.5c0-0.2-0.1-0.5-0.1-0.7s0-0.4,0-0.6L134,9.6L134,9.6z"/>
	<path class="st5" d="M139.5,9.5v7.4h-1.1V9.5H139.5z"/>
	<path class="st5" d="M148.2,9.6l-3.2,7.9l-3.2-7.9h1.2c0.4,1,0.8,1.9,1.2,2.9c0.3,0.8,0.6,1.7,0.9,2.5c0.2-0.5,0.3-1,0.5-1.5
		c0.2-0.7,0.5-1.3,0.8-1.9c0.3-0.6,0.5-1.3,0.8-1.9L148.2,9.6L148.2,9.6z"/>
	<path class="st5" d="M154.5,9.5v1h-2.9v1.8h2.9v1h-2.9v2.6h2.9v1h-3.9V9.5H154.5z"/>
	<path class="st5" d="M161.1,17l-2.2-3.2h-0.4V17h-1V9.5h2.1c0.5,0,1,0.1,1.4,0.4c0.5,0.4,0.7,1.1,0.7,1.7c0,0.3-0.1,1.3-0.9,1.8
		c-0.2,0.1-0.3,0.2-0.7,0.3c0.3,0.5,0.7,1,1,1.5c0.3,0.4,0.5,0.7,0.8,1.1c0.2,0.2,0.3,0.5,0.4,0.7H161.1L161.1,17z M158.5,10.6v2.3
		h0.8c0.5,0,0.9-0.1,1.1-0.5c0.1-0.1,0.2-0.4,0.2-0.8c0-0.1,0-0.6-0.3-0.8c-0.2-0.2-0.5-0.2-0.8-0.2H158.5L158.5,10.6z"/>
	<path class="st5" d="M167.9,11.2c-0.1-0.1-0.1-0.2-0.2-0.3c-0.4-0.5-0.7-0.5-1-0.5c-0.2,0-0.3,0-0.4,0.1c-0.5,0.2-0.5,0.7-0.5,0.9
		c0,0.5,0.5,0.7,0.6,0.8l1.3,0.7c0.2,0.1,0.4,0.2,0.6,0.4c0.7,0.6,0.8,1.3,0.8,1.6c0,0.2,0,0.4-0.1,0.8c-0.4,1-1.2,1.6-2.2,1.6
		c-0.3,0-1-0.1-1.6-0.6c-0.5-0.4-0.7-0.9-0.9-1.6l1-0.2c0.1,0.4,0.2,0.6,0.3,0.7c0.3,0.4,0.7,0.7,1.2,0.7c0.2,0,0.4-0.1,0.5-0.1
		c0.4-0.2,0.7-0.7,0.7-1.2c0-0.6-0.4-0.9-0.8-1.2c-0.5-0.3-1-0.4-1.5-0.7c-0.8-0.5-0.9-1.2-0.9-1.6c0-0.2,0.1-0.8,0.4-1.2
		c0.2-0.3,0.7-0.7,1.6-0.7c0.3,0,0.9,0.1,1.5,0.5c0.3,0.2,0.4,0.4,0.6,0.7L167.9,11.2z"/>
	<path class="st5" d="M172.8,9.5v7.4h-1.1V9.5H172.8z"/>
	<path class="st5" d="M176.2,16.9V9.5c1.5,0,1.8,0,2.7,0.1c0.6,0.1,0.8,0.2,1.2,0.4c1.2,0.6,1.7,1.9,1.7,3.2c0,0.4-0.1,1.6-0.9,2.6
		c-0.4,0.5-0.8,0.7-1,0.8c-0.4,0.2-0.9,0.3-1.9,0.4L176.2,16.9L176.2,16.9z M177.2,16c0.2,0,0.5,0,0.7,0c1,0,1.8-0.3,2.4-1.2
		c0.2-0.2,0.4-0.8,0.4-1.6c0-1.3-0.8-1.9-1.1-2.2c-0.7-0.5-1.6-0.4-2.4-0.4L177.2,16L177.2,16z"/>
	<path class="st5" d="M190.3,17h-1.1l-0.7-1.8h-3.1l-0.8,1.8h-1.1l3.6-7.9L190.3,17z M185.8,14.2h2.3l-1.1-2.6L185.8,14.2z"/>
	<path class="st5" d="M192.7,16.9V9.5c1.5,0,1.8,0,2.7,0.1c0.6,0.1,0.8,0.2,1.2,0.4c1.2,0.6,1.7,1.9,1.7,3.2c0,0.4-0.1,1.6-0.9,2.6
		c-0.4,0.5-0.8,0.7-1,0.8c-0.4,0.2-0.9,0.3-1.9,0.4L192.7,16.9L192.7,16.9z M193.7,16c0.2,0,0.5,0,0.7,0c1,0,1.8-0.3,2.4-1.2
		c0.2-0.2,0.4-0.8,0.4-1.6c0-1.3-0.8-1.9-1.1-2.2c-0.7-0.5-1.6-0.4-2.4-0.4L193.7,16L193.7,16z"/>
	<path class="st5" d="M210.4,11.2c-0.1-0.1-0.2-0.2-0.4-0.3s-0.7-0.5-1.4-0.5c-0.8,0-1.7,0.4-2.2,1.1c-0.5,0.7-0.5,1.4-0.5,1.7
		c0,0.2,0,0.7,0.3,1.2c0.4,1,1.4,1.5,2.4,1.5c0.7,0,1.2-0.3,1.8-0.7v1.3c-0.3,0.2-0.9,0.5-1.8,0.5c-0.4,0-1.5-0.1-2.5-0.9
		c-0.4-0.4-1.2-1.3-1.2-2.9c0-1,0.3-1.9,0.9-2.6c0.7-0.8,1.8-1.3,2.8-1.3c0.7,0,1.2,0.2,1.8,0.5L210.4,11.2z"/>
	<path class="st5" d="M219.2,17h-1.1l-0.7-1.8h-3.1l-0.8,1.8h-1.1l3.6-7.9L219.2,17z M214.6,14.2h2.3l-1.1-2.6L214.6,14.2z"/>
	<path class="st5" d="M224.5,9.5v1h-1.7v6.4h-1v-6.4h-1.7v-1H224.5z"/>
	<path class="st5" d="M227.6,10.6c0.7-0.8,1.7-1.2,2.7-1.2c1.2,0,2.1,0.6,2.4,0.9c0.9,0.7,1.4,1.8,1.4,3c0,0.3,0,0.8-0.3,1.4
		c-0.6,1.5-2,2.4-3.5,2.4c-1.2,0-2.1-0.6-2.4-0.9c-0.9-0.7-1.4-1.9-1.3-3C226.6,12.2,226.9,11.3,227.6,10.6z M228.2,15
		c0.5,0.7,1.3,1.1,2.1,1.1c0.3,0,1-0.1,1.7-0.6c0.6-0.5,1-1.3,1-2.2c0-0.5-0.2-0.9-0.2-1.1c-0.4-1-1.4-1.7-2.5-1.7
		c-0.6,0-1.2,0.2-1.7,0.6c-0.3,0.2-1,0.9-1,2.1C227.6,13.8,227.8,14.5,228.2,15z M231.8,7.7L230.3,9l-0.6-0.3l1.2-1.4L231.8,7.7z"/>
	<path class="st5" d="M237.8,9.5v6.4h2.2v1h-3.2V9.5H237.8z"/>
	<path class="st5" d="M243.7,9.5v7.4h-1.1V9.5H243.7z"/>
	<path class="st5" d="M251.9,11.2c-0.1-0.1-0.2-0.2-0.4-0.3s-0.7-0.5-1.4-0.5c-0.8,0-1.7,0.4-2.2,1.1c-0.5,0.7-0.5,1.4-0.5,1.7
		c0,0.2,0,0.7,0.3,1.2c0.4,1,1.4,1.5,2.4,1.5c0.7,0,1.2-0.3,1.8-0.7v1.3c-0.3,0.2-0.9,0.5-1.8,0.5c-0.4,0-1.5-0.1-2.5-0.9
		c-0.4-0.4-1.2-1.3-1.2-2.9c0-1,0.3-1.9,0.9-2.6c0.7-0.8,1.8-1.3,2.8-1.3c0.7,0,1.2,0.2,1.8,0.5L251.9,11.2z"/>
	<path class="st5" d="M260.7,17h-1.1l-0.7-1.8h-3.1L255,17h-1.1l3.6-7.9L260.7,17z M256.2,14.2h2.3l-1.1-2.6L256.2,14.2z"/>
	<path class="st5" d="M126.6,30.6h-1.1l-0.7-1.8h-3.1l-0.8,1.8h-1.1l3.6-7.9L126.6,30.6z M122.1,27.9h2.3l-1.1-2.6L122.1,27.9z"/>
	<path class="st5" d="M134.3,23.2h1.1v7.7c-0.8-0.9-1.6-1.7-2.5-2.6c-0.5-0.5-1-1-1.5-1.5s-1-1.1-1.5-1.6c0,0.4,0.1,0.7,0.1,1.1
		c0,0.3,0,0.6,0,1v3.4h-1.1v-7.9c1,1,2,2.1,3,3.1c0.8,0.8,1.6,1.7,2.4,2.5c0-0.2-0.1-0.5-0.1-0.7s0-0.4,0-0.6v-3.9H134.3z"/>
	<path class="st5" d="M138.7,30.6v-7.4c1.5,0,1.8,0,2.7,0.1c0.6,0.1,0.8,0.2,1.2,0.4c1.2,0.6,1.7,1.9,1.7,3.2c0,0.4-0.1,1.6-0.9,2.6
		c-0.4,0.5-0.8,0.7-1,0.8c-0.4,0.2-0.9,0.3-1.9,0.4L138.7,30.6L138.7,30.6z M139.7,29.6c0.2,0,0.5,0,0.7,0c1,0,1.8-0.3,2.4-1.2
		c0.2-0.2,0.4-0.8,0.4-1.6c0-1.3-0.8-1.9-1.1-2.2c-0.7-0.5-1.6-0.4-2.4-0.4L139.7,29.6L139.7,29.6z"/>
	<path class="st5" d="M150.6,30.6l-2.2-3.2H148v3.2h-1v-7.5h2.1c0.5,0,1,0.1,1.4,0.4c0.5,0.4,0.7,1.1,0.7,1.7c0,0.3-0.1,1.3-0.9,1.8
		c-0.2,0.1-0.3,0.2-0.7,0.3c0.3,0.5,0.7,1,1,1.5c0.3,0.4,0.5,0.7,0.8,1.1c0.2,0.2,0.3,0.5,0.4,0.7H150.6L150.6,30.6z M148,24.2v2.3
		h0.8c0.5,0,0.9-0.1,1.1-0.5c0.1-0.1,0.2-0.4,0.2-0.8c0-0.1,0-0.6-0.3-0.8c-0.2-0.2-0.5-0.2-0.8-0.2H148L148,24.2z"/>
	<path class="st5" d="M158.3,23.2v1h-2.9V26h2.9v1h-2.9v2.6h2.9v1h-3.9v-7.4H158.3z M157.6,21.4l-1.5,1.3l-0.6-0.3l1.2-1.4
		L157.6,21.4z"/>
	<path class="st5" d="M164.1,24.8c-0.1-0.1-0.1-0.2-0.2-0.3c-0.3-0.4-0.7-0.5-1-0.5c-0.2,0-0.3,0-0.4,0.1c-0.5,0.2-0.5,0.7-0.5,0.9
		c0,0.5,0.5,0.7,0.6,0.8l1.3,0.7c0.2,0.1,0.4,0.2,0.6,0.4c0.7,0.6,0.8,1.3,0.8,1.6c0,0.2,0,0.4-0.1,0.8c-0.4,1-1.2,1.6-2.2,1.6
		c-0.3,0-1-0.1-1.6-0.6c-0.5-0.4-0.7-0.9-0.9-1.6l1-0.2c0.1,0.4,0.2,0.6,0.3,0.7c0.3,0.4,0.7,0.7,1.2,0.7c0.2,0,0.4-0.1,0.5-0.1
		c0.4-0.2,0.7-0.7,0.7-1.2c0-0.6-0.4-0.9-0.8-1.2c-0.5-0.3-1-0.4-1.5-0.7c-0.8-0.5-0.9-1.2-0.9-1.6c0-0.2,0.1-0.8,0.5-1.2
		c0.2-0.3,0.7-0.7,1.6-0.7c0.3,0,0.9,0.1,1.5,0.5c0.3,0.2,0.4,0.4,0.6,0.7L164.1,24.8z"/>
	<path class="st5" d="M172,30.6v-7.4c0.4,0,0.8,0,1.2,0c0.2,0,0.5,0,0.7,0s0.8,0.1,1.3,0.6c0.3,0.4,0.5,0.9,0.5,1.4
		c0,0.4-0.1,0.8-0.4,1.1c-0.1,0.1-0.2,0.2-0.4,0.4c0.2,0.1,0.4,0.1,0.6,0.3c0.3,0.2,0.7,0.7,0.7,1.6c0,0.4-0.1,1.3-0.9,1.8
		c-0.6,0.3-1.1,0.3-2.3,0.3L172,30.6L172,30.6z M173,29.7c0.2,0,0.5,0,0.7,0c0.1,0,0.5,0,0.8-0.1s0.8-0.3,0.8-1.1
		c0-0.7-0.5-1-0.7-1.1s-0.5-0.1-0.6-0.1c-0.3,0-0.6,0-0.9,0L173,29.7L173,29.7z M173,26.5h0.4c0.4,0,0.8-0.1,1-0.4
		c0.1-0.1,0.2-0.4,0.2-0.7c0-0.1,0-0.4-0.2-0.7c-0.3-0.4-0.7-0.4-1.5-0.4L173,26.5z"/>
	<path class="st5" d="M183.1,23.2v1h-2.9V26h2.9v1h-2.9v2.6h2.9v1h-3.9v-7.4H183.1z"/>
	<path class="st5" d="M187.2,23.2v6.4h2.2v1h-3.2v-7.4H187.2z"/>
	<path class="st5" d="M193,23.2v6.4h2.2v1H192v-7.4H193z"/>
	<path class="st5" d="M197.8,24.3c0.7-0.8,1.7-1.2,2.7-1.2c1.2,0,2.1,0.6,2.4,0.9c0.9,0.7,1.4,1.8,1.4,3c0,0.3,0,0.8-0.3,1.4
		c-0.6,1.5-2,2.4-3.5,2.4c-1.2,0-2.1-0.6-2.4-0.9c-0.9-0.7-1.4-1.9-1.3-3C196.8,25.9,197.2,24.9,197.8,24.3z M198.4,28.6
		c0.5,0.7,1.3,1.1,2.1,1.1c0.3,0,1-0.1,1.7-0.6c0.6-0.5,1-1.3,1-2.2c0-0.5-0.2-0.9-0.2-1.1c-0.4-1-1.4-1.7-2.5-1.7
		c-0.6,0-1.2,0.2-1.7,0.6c-0.3,0.2-1,0.9-1,2C197.8,27.4,198,28.1,198.4,28.6z"/>
</g>
</svg>
